<svg xmlns="http://www.w3.org/2000/svg" viewBox="0 0 583 120" width="583" height="120">
  <path fill="#D5AD59" d="M35.824 78.592C39.088 78.592 44.176 79.744 44.176 85.6C44.176 92.512 37.168 94.912 33.135999999999996 94.912C31.888 94.912 30.928 94.816 30.928 94.72C30.928 94.432 30.736 94.144 30.448 93.952C31.696 89.632 33.616 84.16 35.824 78.592ZM38.704 46.72C38.704 52.576 34.192 62.368 29.776 71.968C25.456 81.568 21.136000000000003 91.072 21.424 96.544C21.712 102.016 24.016 103.264 26.032 103.264C27.376 103.264 28.624 102.496 28.72 102.496C29.392 102.496 29.68 102.016 29.584 101.44C29.392 100.768 29.392 100.0 29.488 99.04C30.256 100.768 32.176 102.304 36.208 102.304C44.752 102.304 52.432 95.104 52.432 86.656C52.432 82.432 50.512 79.264 47.728 77.152C56.56 74.56 66.736 67.936 66.736 52.48C66.736 40.576 56.272 31.263999999999996 45.328 31.36C23.728 31.551999999999992 10.096 45.856 10.096 63.04C10.096 70.048 13.36 72.928 17.872 72.928C18.928 72.928 19.984 72.832 20.944000000000003 72.544C21.808 72.256 21.904 71.29599999999999 21.136000000000003 70.816C19.311999999999998 69.75999999999999 17.776 67.744 17.776 63.327999999999996C17.776 53.728 26.608 35.775999999999996 43.024 35.775999999999996C52.432 35.775999999999996 58.0 44.224 58.0 53.152C58.0 62.368 51.952 72.064 37.744 73.888C39.472 69.75999999999999 40.528000000000006 67.36 42.064 63.903999999999996L44.56 57.952C45.424 55.936 46.0 53.536 46.0 51.327999999999996C46.0 47.872 44.368 44.8 39.472 45.76Z"/><path fill="#D5AD59" d="M92.944 76.48C92.464 76.288 91.888 76.48 91.792 76.96000000000001C90.44800000000001 79.456 88.336 81.952 86.32000000000001 83.488C88.048 78.688 88.912 73.888 88.912 69.472C88.912 64.47999999999999 87.376 60.256 84.688 58.048C82.576 56.608 79.792 55.744 77.392 55.744C70.768 55.744 63.952 60.64 62.224000000000004 68.032C61.744 70.048 61.552 72.352 61.552 74.368C61.552 77.248 61.936 80.032 63.088 82.52799999999999C62.32 85.312 61.648 88.48 61.648 91.072C61.648 96.16 63.760000000000005 99.904 69.712 100.288C75.28 100.672 80.08 95.968 83.632 89.632C90.736 87.136 94.28800000000001 81.184 95.344 79.264L95.152 79.456L95.44 78.976C96.016 78.4 95.824 77.728 95.152 77.44ZM76.432 66.688C75.664 65.24799999999999 72.88 65.44 70.864 65.72800000000001C72.592 62.08 75.28 60.448 77.968 60.448C80.368 60.448 82.768 61.888 84.304 64.768C84.784 65.824 85.072 67.36 85.072 69.088C85.072 73.888 83.056 80.70400000000001 80.368 86.176C79.6 86.368 78.736 86.464 78.06400000000001 86.464C75.28 86.464 72.688 85.504 71.056 83.104C71.824 81.088 72.592 79.456 73.36 77.344C75.376 72.352 77.2 68.032 76.432 66.688ZM70.0 95.296C69.136 94.912 68.848 93.952 68.848 92.608C68.848 91.648 69.04 90.4 69.328 89.152C70.672 89.728 73.072 90.496 74.992 90.592C76.048 90.688 76.912 90.688 77.872 90.688C75.28 94.336 72.4 96.448 70.0 95.296Z"/><path fill="#D5AD59" d="M111.568 77.248C113.776 70.912 117.80799999999999 61.12 108.304 57.664C107.44 58.432 106.576 58.432 104.848 58.336L104.94399999999999 58.048C105.328 56.608 105.71199999999999 54.88 105.71199999999999 53.248C105.71199999999999 50.943999999999996 105.03999999999999 49.216 102.64 48.256C100.24 47.296 95.92 48.256 94.09599999999999 50.176C93.03999999999999 51.327999999999996 92.27199999999999 52.864 92.08 54.496C91.696 58.048 93.52 61.024 96.68799999999999 62.464C97.16799999999999 62.752 97.648 62.848 98.128 62.848C98.32 62.944 98.32 62.848 98.60799999999999 62.944C97.648 65.344 95.44 70.048 94.09599999999999 72.544C93.52 73.792 91.6 77.152 90.928 78.304C90.64 78.688 90.832 79.264 91.216 79.55199999999999L93.136 80.992C93.616 81.28 94.09599999999999 81.184 94.384 80.70400000000001C97.744 75.52 100.72 69.568 103.11999999999999 63.808C103.984 64.0 104.94399999999999 64.288 106.0 64.384L102.544 74.848C101.19999999999999 78.88 100.14399999999999 81.664 99.184 84.44800000000001C98.704 86.56 98.416 88.576 98.416 90.592C98.416 94.24 99.568 97.504 102.928 99.616H102.832C104.752 101.056 108.39999999999999 99.904 110.416 97.792C115.6 92.512 119.63199999999999 86.56 123.28 80.032C125.104 78.01599999999999 123.472 76.672 121.264 76.384C120.88 76.288 120.39999999999999 76.576 120.304 76.864C120.304 76.864 113.392 89.632 106.672 95.008L106.768 94.912C106.672 94.912 106.576 95.008 106.576 95.008C106.192 93.376 109.16799999999999 84.352 111.568 77.248ZM99.28 55.552C99.28 54.208 99.664 52.96 100.52799999999999 52.096C100.91199999999999 52.48 100.816 53.152 100.816 53.92C100.816 55.168 100.52799999999999 56.512 100.14399999999999 57.472C99.568 56.992 99.28 56.224 99.28 55.552ZM108.304 57.568V57.664L108.39999999999999 57.568Z"/><path fill="#D5AD59" d="M146.8 94.912C146.704 94.912 146.704 95.008 146.704 95.008ZM163.792 77.248C162.928 76.672 161.296 76.384 161.296 76.384C161.10399999999998 76.384 160.624 76.48 160.43200000000002 76.672C159.376 77.632 158.608 79.264 157.36 81.184C154.768 85.408 151.12 91.456 146.704 95.008C146.032 91.264 154.38400000000001 68.608 159.856 53.824V53.92L162.064 47.775999999999996C164.272 39.232 156.688 39.04 156.688 39.04L152.944 47.775999999999996C151.6 50.848 149.872 54.304 148.24 58.24C147.184 57.28 145.552 56.512 143.824 56.32C132.208 55.647999999999996 124.816 64.0 120.976 73.984C119.92 76.864 118.672 82.24 118.672 87.328C118.672 94.048 120.688 100.288 127.696 100.288C132.59199999999998 100.288 136.144 94.432 138.928 88.672V90.304C138.928 94.432 139.984 97.888 142.864 99.616H142.768C144.688 101.056 148.432 99.904 150.352 97.792C155.632 92.512 159.56799999999998 86.56 163.312 80.032C163.792 79.456 164.272 78.592 163.984 77.728ZM143.152 61.696C144.208 61.696 145.552 61.984 146.416 62.848C144.976 66.208 143.632 69.75999999999999 142.48 73.12C141.136 75.232 139.504 78.208 137.776 81.376C134.128 88.19200000000001 130.192 95.488 128.08 95.584C127.312 95.584 126.928 94.432 126.928 92.608C126.928 83.68 135.856 61.696 143.152 61.696Z"/><path fill="#D5AD59" d="M172.528 95.392C169.168 95.584 168.4 91.55199999999999 168.4 87.80799999999999C168.4 86.752 168.4 85.888 168.49599999999998 84.832C172.432 83.008 187.12 75.328 188.464 66.688C189.04 62.176 188.07999999999998 58.24 182.992 56.992C173.77599999999998 55.744 165.136 64.096 161.2 73.888C159.952 77.344 158.992 81.568 158.992 84.832C158.992 86.08 159.088 87.424 159.28 88.48C160.23999999999998 94.048 163.31199999999998 100.576 170.512 100.768C177.232 100.96 184.048 93.952 188.464 87.424C189.904 85.312 191.632 82.432 192.976 80.032C193.26399999999998 79.55199999999999 193.84 78.4 193.84 78.01599999999999C193.84 77.824 193.648 77.344 193.456 77.248C192.59199999999998 76.672 190.95999999999998 76.384 190.95999999999998 76.384C190.672 76.288 190.192 76.576 190.0 76.864C190.0 76.864 187.024 81.47200000000001 184.816 84.832C182.128 89.152 176.464 95.104 172.528 95.392ZM169.456 79.168C171.088 72.928 175.6 63.424 183.28 62.752C183.664 64.672 183.952 72.44800000000001 169.456 79.168Z"/><path fill="#D5AD59" d="M209.87199999999999 77.248C212.07999999999998 70.912 216.112 61.12 206.608 57.664C205.744 58.432 204.88 58.432 203.152 58.336L203.248 58.048C203.632 56.608 204.016 54.88 204.016 53.248C204.016 50.943999999999996 203.344 49.216 200.944 48.256C198.54399999999998 47.296 194.224 48.256 192.4 50.176C191.344 51.327999999999996 190.576 52.864 190.384 54.496C190.0 58.048 191.82399999999998 61.024 194.992 62.464C195.472 62.752 195.952 62.848 196.432 62.848C196.624 62.944 196.624 62.848 196.912 62.944C195.952 65.344 193.744 70.048 192.4 72.544C191.82399999999998 73.792 189.904 77.152 189.232 78.304C188.944 78.688 189.136 79.264 189.52 79.55199999999999L191.44 80.992C191.92 81.28 192.4 81.184 192.688 80.70400000000001C196.048 75.52 199.024 69.568 201.424 63.808C202.288 64.0 203.248 64.288 204.304 64.384L200.84799999999998 74.848C199.504 78.88 198.448 81.664 197.488 84.44800000000001C197.008 86.56 196.72 88.576 196.72 90.592C196.72 94.24 197.87199999999999 97.504 201.232 99.616H201.136C203.05599999999998 101.056 206.704 99.904 208.72 97.792C213.904 92.512 217.936 86.56 221.584 80.032C223.40800000000002 78.01599999999999 221.776 76.672 219.56799999999998 76.384C219.184 76.288 218.704 76.576 218.608 76.864C218.608 76.864 211.696 89.632 204.976 95.008L205.072 94.912C204.976 94.912 204.88 95.008 204.88 95.008C204.496 93.376 207.472 84.352 209.87199999999999 77.248ZM197.584 55.552C197.584 54.208 197.968 52.96 198.832 52.096C199.216 52.48 199.12 53.152 199.12 53.92C199.12 55.168 198.832 56.512 198.448 57.472C197.87199999999999 56.992 197.584 56.224 197.584 55.552ZM206.608 57.568V57.664L206.704 57.568Z"/><path fill="#D5AD59" d="M236.08 56.032C237.424 55.455999999999996 235.984 52.96 232.816 52.96C230.32 52.96 227.344 54.4 226.672 60.16V60.256C225.712 62.944 222.352 70.048 221.008 72.544C220.336 73.792 218.512 77.152 217.744 78.304C217.456 78.688 217.648 79.264 218.032 79.55199999999999L219.952 80.992C220.432 81.28 221.008 81.184 221.296 80.70400000000001C223.024 77.92 223.888 76.19200000000001 224.752 74.752C225.424 73.6 226.288 71.776 227.344 69.568L227.824 71.872C228.496 75.136 229.072 78.592 229.072 81.952C229.072 83.968 228.784 86.08 228.208 88.384H228.304L227.536 90.016C224.176 91.072 221.392 91.36 219.184 91.36C217.264 91.36 216.016 91.072 216.016 91.072H215.92V90.78399999999999C216.016 89.92 215.056 89.344 214.38400000000001 89.92C213.328 90.78399999999999 212.752 92.32 212.752 93.952C212.752 97.216 215.344 101.152 222.352 101.152C227.92000000000002 101.152 235.12 98.176 237.424 90.88C240.4 89.152 243.28 86.464 245.68 83.392C248.176 80.128 248.656 77.728 248.656 77.728L246.256 76.384C245.968 76.288 245.488 76.48 245.392 76.672C245.2 76.864 243.856 78.88 242.032 80.8C240.784 82.144 239.536 83.392 238.288 84.44800000000001V83.776C238.0 80.128 236.94400000000002 76.384 235.984 72.544C235.024 68.416 233.872 64.288 233.872 61.216C233.872 58.912 234.544 57.088 236.176 56.032Z"/><path fill="#ffffff" d="M294.44800000000004 78.592C297.71200000000005 78.592 302.8 79.744 302.8 85.6C302.8 92.512 295.79200000000003 94.912 291.76000000000005 94.912C290.512 94.912 289.552 94.816 289.552 94.72C289.552 94.432 289.36 94.144 289.072 93.952C290.32000000000005 89.632 292.24 84.16 294.44800000000004 78.592ZM297.32800000000003 46.72C297.32800000000003 52.576 292.81600000000003 62.368 288.40000000000003 71.968C284.08000000000004 81.568 279.76000000000005 91.072 280.048 96.544C280.336 102.016 282.64000000000004 103.264 284.656 103.264C286.0 103.264 287.24800000000005 102.496 287.34400000000005 102.496C288.016 102.496 288.30400000000003 102.016 288.208 101.44C288.016 100.768 288.016 100.0 288.112 99.04C288.88 100.768 290.8 102.304 294.83200000000005 102.304C303.37600000000003 102.304 311.05600000000004 95.104 311.05600000000004 86.656C311.05600000000004 82.432 309.136 79.264 306.35200000000003 77.152C315.184 74.56 325.36 67.936 325.36 52.48C325.36 40.576 314.896 31.263999999999996 303.952 31.36C282.35200000000003 31.551999999999992 268.72 45.856 268.72 63.04C268.72 70.048 271.98400000000004 72.928 276.49600000000004 72.928C277.552 72.928 278.608 72.832 279.56800000000004 72.544C280.432 72.256 280.528 71.29599999999999 279.76000000000005 70.816C277.93600000000004 69.75999999999999 276.40000000000003 67.744 276.40000000000003 63.327999999999996C276.40000000000003 53.728 285.232 35.775999999999996 301.648 35.775999999999996C311.05600000000004 35.775999999999996 316.624 44.224 316.624 53.152C316.624 62.368 310.576 72.064 296.36800000000005 73.888C298.096 69.75999999999999 299.15200000000004 67.36 300.68800000000005 63.903999999999996L303.184 57.952C304.048 55.936 304.624 53.536 304.624 51.327999999999996C304.624 47.872 302.992 44.8 298.096 45.76Z"/><path fill="#ffffff" d="M343.504 77.248C342.64000000000004 76.672 341.00800000000004 76.384 341.00800000000004 76.384C340.624 76.288 340.144 76.576 339.952 76.864C339.952 76.864 333.136 89.632 326.416 95.008L326.512 94.912C326.32 95.008 326.22400000000005 95.104 326.22400000000005 95.104C325.36 92.512 330.54400000000004 79.648 334.384 70.048C336.016 65.632 335.824 66.208 336.40000000000003 64.384C338.512 59.199999999999996 330.44800000000004 57.28 330.44800000000004 57.28C329.68 59.775999999999996 327.76 64.19200000000001 325.93600000000004 67.744C322.48 74.848 318.064 83.68 318.064 90.592C318.064 94.24 319.408 97.504 322.672 99.616H322.576C324.49600000000004 101.056 328.144 99.904 330.16 97.792C335.536 92.32 340.72 85.6 343.79200000000003 78.4ZM336.976 40.576C335.92 41.632 331.98400000000004 53.728 332.752 54.496L333.232 54.784C335.05600000000004 55.839999999999996 338.32 56.992 342.16 49.984C343.216 47.872 343.88800000000003 45.856 343.88800000000003 44.224C343.88800000000003 41.152 341.776 39.711999999999996 337.552 40.288Z"/><path fill="#ffffff" d="M376.81600000000003 77.248C376.048 76.672 374.32 76.384 374.32 76.384C374.03200000000004 76.288 373.648 76.576 373.456 76.768C372.784 77.536 372.30400000000003 78.4 371.536 79.744C369.04 84.064 364.81600000000003 91.072 359.728 95.008L359.824 94.912C359.632 95.008 359.536 95.104 359.536 95.104C357.808 92.224 355.98400000000004 86.656 355.504 81.952C363.184 79.456 371.728 72.44800000000001 371.728 65.344C371.728 63.616 371.15200000000004 61.504 369.904 59.775999999999996C368.17600000000004 57.376 365.10400000000004 56.32 362.32 58.144L362.03200000000004 58.336L361.072 59.296C357.712 63.135999999999996 353.872 68.224 350.704 73.024C353.10400000000004 66.01599999999999 355.88800000000003 58.816 358.096 52.96V53.056C360.016 47.872 363.47200000000004 39.711999999999996 354.64000000000004 39.04C353.968 40.768 352.336 44.608 350.896 47.967999999999996C345.42400000000004 60.544 336.49600000000004 82.144 336.49600000000004 93.376C336.49600000000004 95.104 336.688 96.64 337.264 98.08V97.984C338.03200000000004 100.384 341.68 100.288 342.832 100.288C343.408 100.288 343.88800000000003 99.712 343.79200000000003 99.136C343.696 98.752 343.696 97.6 343.98400000000004 96.064L343.88800000000003 96.16C345.04 92.992 346.48 89.728 348.208 86.272C349.93600000000004 95.392 353.68 98.752 356.17600000000004 100.0C358.096 101.056 361.456 99.904 363.47200000000004 97.792C368.752 92.512 372.688 86.56 376.336 80.032C376.81600000000003 79.456 377.392 78.592 377.10400000000004 77.728ZM364.81600000000003 65.344C365.488 68.128 357.04 73.50399999999999 354.64000000000004 75.328C356.656 72.64 363.856 61.792 364.81600000000003 65.344Z"/><path fill="#ffffff" d="M385.4560000000001 95.392C382.09600000000006 95.584 381.32800000000003 91.55199999999999 381.32800000000003 87.80799999999999C381.32800000000003 86.752 381.32800000000003 85.888 381.42400000000004 84.832C385.36000000000007 83.008 400.04800000000006 75.328 401.39200000000005 66.688C401.9680000000001 62.176 401.00800000000004 58.24 395.9200000000001 56.992C386.70400000000006 55.744 378.064 64.096 374.12800000000004 73.888C372.88000000000005 77.344 371.9200000000001 81.568 371.9200000000001 84.832C371.9200000000001 86.08 372.016 87.424 372.208 88.48C373.16800000000006 94.048 376.24000000000007 100.576 383.44000000000005 100.768C390.16 100.96 396.97600000000006 93.952 401.39200000000005 87.424C402.83200000000005 85.312 404.56000000000006 82.432 405.90400000000005 80.032C406.19200000000006 79.55199999999999 406.76800000000003 78.4 406.76800000000003 78.01599999999999C406.76800000000003 77.824 406.576 77.344 406.38400000000007 77.248C405.52000000000004 76.672 403.88800000000003 76.384 403.88800000000003 76.384C403.6 76.288 403.12000000000006 76.576 402.92800000000005 76.864C402.92800000000005 76.864 399.95200000000006 81.47200000000001 397.744 84.832C395.05600000000004 89.152 389.39200000000005 95.104 385.4560000000001 95.392ZM382.38400000000007 79.168C384.016 72.928 388.528 63.424 396.208 62.752C396.59200000000004 64.672 396.88000000000005 72.44800000000001 382.38400000000007 79.168Z"/><path fill="#ffffff" d="M444.78400000000005 35.968C446.22400000000005 43.168 439.98400000000004 58.24 434.41600000000005 71.872C430.192 82.24 426.16 91.744 426.16 96.448C426.16 102.016 428.46400000000006 103.264 430.672 103.264C432.016 103.264 433.36 102.496 433.456 102.496C434.12800000000004 102.496 434.41600000000005 102.016 434.41600000000005 101.44C433.744 98.368 436.144 89.632 439.504 79.936C448.528 98.176 462.16 116.896 473.58400000000006 116.896C476.56000000000006 116.896 479.34400000000005 115.648 481.84000000000003 112.96000000000001C483.28000000000003 111.424 483.85600000000005 110.08 483.85600000000005 108.832C483.85600000000005 106.24 481.456 104.8 480.59200000000004 104.224C479.824 103.744 478.86400000000003 104.416 479.15200000000004 105.184C479.53600000000006 106.336 476.944 106.624 475.98400000000004 106.72H475.6C464.36800000000005 106.72 449.872 84.544 443.92 74.656C452.27200000000005 66.49600000000001 468.59200000000004 51.135999999999996 473.68000000000006 47.391999999999996C479.05600000000004 43.455999999999996 482.896 42.496 485.29600000000005 42.496C487.696 42.496 488.56000000000006 43.263999999999996 488.65600000000006 43.36C489.136 43.839999999999996 489.90400000000005 43.744 490.192 43.168C491.15200000000004 41.44 491.53600000000006 40.288 491.53600000000006 39.04C491.53600000000006 35.488 487.408 35.29599999999999 484.81600000000003 35.488C473.20000000000005 36.064 453.80800000000005 57.28 443.53600000000006 68.8C446.8 60.256 449.872 52.384 451.79200000000003 47.775999999999996C452.65600000000006 45.76 453.136 43.455999999999996 453.136 41.344C453.136 37.12 451.12 33.568 445.552 34.816Z"/><path fill="#ffffff" d="M491.34400000000005 77.248C490.4800000000001 76.672 488.84800000000007 76.384 488.84800000000007 76.384C488.46400000000006 76.288 487.98400000000004 76.576 487.79200000000003 76.864C487.79200000000003 76.864 480.97600000000006 89.632 474.25600000000003 95.008L474.35200000000003 94.912C474.16 95.008 474.0640000000001 95.104 474.0640000000001 95.104C473.20000000000005 92.512 478.38400000000007 79.648 482.22400000000005 70.048C483.85600000000005 65.632 483.66400000000004 66.208 484.24000000000007 64.384C486.35200000000003 59.199999999999996 478.28800000000007 57.28 478.28800000000007 57.28C477.52000000000004 59.775999999999996 475.6 64.19200000000001 473.77600000000007 67.744C470.32000000000005 74.848 465.90400000000005 83.68 465.90400000000005 90.592C465.90400000000005 94.24 467.24800000000005 97.504 470.51200000000006 99.616H470.41600000000005C472.33600000000007 101.056 475.98400000000004 99.904 478.00000000000006 97.792C483.37600000000003 92.32 488.56000000000006 85.6 491.63200000000006 78.4ZM484.81600000000003 40.576C483.76000000000005 41.632 479.82400000000007 53.728 480.59200000000004 54.496L481.07200000000006 54.784C482.8960000000001 55.839999999999996 486.16 56.992 490.00000000000006 49.984C491.05600000000004 47.872 491.72800000000007 45.856 491.72800000000007 44.224C491.72800000000007 41.152 489.61600000000004 39.711999999999996 485.39200000000005 40.288Z"/><path fill="#ffffff" d="M490.96000000000004 100.288C491.72800000000007 100.288 492.112 99.616 491.82400000000007 98.944C491.63200000000006 98.56 491.53600000000006 97.696 491.63200000000006 96.64L491.53600000000006 96.832C495.088 86.656 503.53600000000006 75.616 511.31200000000007 66.208C510.44800000000004 69.184 510.92800000000005 67.45599999999999 509.9680000000001 70.336H510.0640000000001C507.85600000000005 76.96000000000001 506.41600000000005 80.70400000000001 505.26400000000007 84.44800000000001C504.68800000000005 86.56 504.40000000000003 88.576 504.40000000000003 90.592C504.40000000000003 94.24 505.648 97.504 508.91200000000003 99.616H508.81600000000003C510.83200000000005 101.056 514.48 99.904 516.4000000000001 97.792C521.6800000000001 92.512 525.6160000000001 86.56 529.36 80.032C529.84 79.456 530.32 78.592 530.032 77.344C528.976 76.672 527.344 76.384 527.344 76.384C527.152 76.384 526.672 76.48 526.48 76.672C525.4240000000001 77.632 524.6560000000001 79.264 523.408 81.184C520.816 85.408 517.168 91.456 512.7520000000001 95.008L512.8480000000001 94.912C512.7520000000001 94.912 512.6560000000001 95.008 512.6560000000001 95.008C512.272 93.376 515.248 84.352 517.648 77.248C518.416 74.848 519.2800000000001 72.64 519.76 71.008H519.6640000000001L520.24 69.28C521.2 66.208 522.6400000000001 62.272 521.488 60.448C520.624 59.104 518.7040000000001 58.048 517.264 57.472L516.3040000000001 57.184C515.9200000000001 57.088 515.44 57.088 515.152 57.184C514.288 57.184 513.7120000000001 57.472 513.0400000000001 57.952L512.5600000000001 58.24L511.4080000000001 59.296C506.8960000000001 64.384 501.61600000000004 70.24 497.29600000000005 76.288C499.21600000000007 69.856 507.66400000000004 57.664 495.37600000000003 57.28C491.34400000000005 67.36 484.14400000000006 80.512 484.14400000000006 91.936C484.14400000000006 94.048 484.4320000000001 96.064 485.10400000000004 97.984C485.9680000000001 100.384 489.52000000000004 100.288 490.76800000000003 100.288Z"/><path fill="#ffffff" d="M521.392 109.6C521.392 109.6 523.216 117.47200000000001 533.392 115.744C538.768 114.88 543.7600000000001 108.736 547.504 101.536C560.7520000000001 91.936 566.224 77.728 566.224 77.728L563.8240000000001 76.384C563.44 76.288 563.056 76.576 562.864 76.864C562.864 76.864 558.8320000000001 83.2 558.3520000000001 83.968C556.144 87.03999999999999 553.936 89.92 551.6320000000001 92.32C557.488 79.264 557.6800000000001 74.656 557.6800000000001 74.656C557.6800000000001 74.656 560.368 66.88 551.6320000000001 66.592C550.576 65.92 539.056 95.776 535.6 95.68C533.7760000000001 95.776 532.912 94.048 532.912 91.456C532.912 81.75999999999999 542.128 61.696 549.4240000000001 61.696C550.864 61.696 552.976 62.176 553.36 64.096C553.552 64.96000000000001 554.416 65.152 554.9920000000001 64.47999999999999C557.7760000000001 61.024 554.9920000000001 56.704 550.096 56.32C538.768 55.647999999999996 531.1840000000001 64.384 527.248 73.888C525.8080000000001 77.728 524.9440000000001 82.24 524.9440000000001 86.08C524.9440000000001 89.92 525.8080000000001 93.76 527.344 96.928C529.264 99.232 531.7600000000001 100.288 534.0640000000001 100.288C535.6 100.288 537.0400000000001 99.808 538.192 98.944L538.096 99.04C539.344 98.464 540.88 96.448 542.32 93.856C541.264 96.832 539.8240000000001 99.808 538.384 102.496C529.456 107.392 522.8320000000001 107.584 522.8320000000001 107.584L522.4480000000001 108.44800000000001C521.8720000000001 108.352 521.296 108.832 521.392 109.6ZM527.8240000000001 110.656C529.456 110.272 531.0880000000001 109.792 532.624 109.21600000000001C532.624 109.312 532.528 109.408 532.432 109.504C531.2800000000001 110.272 529.744 110.752 528.6880000000001 110.752C528.3040000000001 110.752 527.9200000000001 110.752 527.6320000000001 110.656Z"/>
</svg>